<svg width="20" height="20" viewBox="0 0 20 20" fill="none" xmlns="http://www.w3.org/2000/svg">
<path fill-rule="evenodd" clip-rule="evenodd" d="M14.3904 7.14808C14.5348 7.29236 14.616 7.48815 14.616 7.69231C14.616 7.89647 14.5348 8.09226 14.3904 8.23654L9.00577 13.6212C8.86149 13.7656 8.6657 13.8468 8.46154 13.8468C8.25738 13.8468 8.06159 13.7656 7.91731 13.6212L5.60962 11.3135C5.30905 11.0129 5.30905 10.5256 5.60962 10.225C5.91019 9.92443 6.39751 9.92443 6.69808 10.225L8.46154 11.9894L13.3019 7.14808C13.4462 7.00363 13.642 6.92247 13.8462 6.92247C14.0503 6.92247 14.2461 7.00363 14.3904 7.14808ZM20 10C20 15.5228 15.5228 20 10 20C4.47715 20 0 15.5228 0 10C0 4.47715 4.47715 0 10 0C15.5204 0.00582964 19.9942 4.47957 20 10ZM18.4615 10C18.4615 5.32682 14.6732 1.53846 10 1.53846C5.32682 1.53846 1.53846 5.32682 1.53846 10C1.53846 14.6732 5.32682 18.4615 10 18.4615C14.671 18.4562 18.4562 14.671 18.4615 10Z" fill="#0D141C"/>
</svg>
