<svg width="18" height="17" viewBox="0 0 18 17" fill="none" xmlns="http://www.w3.org/2000/svg">
<path fill-rule="evenodd" clip-rule="evenodd" d="M18 8.2502C18 8.66441 17.6642 9.00018 17.25 9.00018H9.00024C8.58604 9.00018 8.25026 8.66441 8.25026 8.2502C8.25026 7.836 8.58604 7.50022 9.00024 7.50022H17.25C17.6642 7.50022 18 7.836 18 8.2502ZM9.00024 3.00035H17.25C17.6642 3.00035 18 2.66457 18 2.25037C18 1.83616 17.6642 1.50039 17.25 1.50039H9.00024C8.58604 1.50039 8.25026 1.83616 8.25026 2.25037C8.25026 2.66457 8.58604 3.00035 9.00024 3.00035ZM17.25 13.5001H9.00024C8.58604 13.5001 8.25026 13.8358 8.25026 14.25C8.25026 14.6642 8.58604 15 9.00024 15H17.25C17.6642 15 18 14.6642 18 14.25C18 13.8358 17.6642 13.5001 17.25 13.5001ZM4.71974 0.219796L2.25043 2.69004L1.28108 1.71976C0.98803 1.42671 0.512905 1.42671 0.219857 1.71976C-0.0731908 2.0128 -0.0731908 2.48793 0.219857 2.78098L1.71982 4.28094C1.86049 4.42177 2.05138 4.5009 2.25043 4.5009C2.44948 4.5009 2.64037 4.42177 2.78104 4.28094L5.78096 1.28102C6.07401 0.987969 6.07401 0.512844 5.78096 0.219796C5.48791 -0.0732519 5.01278 -0.0732519 4.71974 0.219796ZM4.71974 6.21963L2.25043 8.68988L1.28108 7.71959C1.09151 7.53002 0.815207 7.45599 0.556251 7.52538C0.297295 7.59476 0.0950273 7.79703 0.0256403 8.05599C-0.0437467 8.31494 0.0302884 8.59125 0.219857 8.78081L1.71982 10.2808C1.86049 10.4216 2.05138 10.5007 2.25043 10.5007C2.44948 10.5007 2.64037 10.4216 2.78104 10.2808L5.78096 7.28086C6.07401 6.98781 6.07401 6.51268 5.78096 6.21963C5.48791 5.92658 5.01278 5.92658 4.71974 6.21963ZM4.71974 12.2195L2.25043 14.6897L1.28108 13.7194C1.09151 13.5299 0.815207 13.4558 0.556251 13.5252C0.297295 13.5946 0.0950273 13.7969 0.0256403 14.0558C-0.0437467 14.3148 0.0302884 14.5911 0.219857 14.7807L1.71982 16.2806C1.86049 16.4214 2.05138 16.5006 2.25043 16.5006C2.44948 16.5006 2.64037 16.4214 2.78104 16.2806L5.78096 13.2807C6.07401 12.9876 6.07401 12.5125 5.78096 12.2195C5.48791 11.9264 5.01278 11.9264 4.71974 12.2195Z" fill="#0D141C"/>
</svg>
