<svg width="21" height="20" viewBox="0 0 21 20" fill="none" xmlns="http://www.w3.org/2000/svg">
<path fill-rule="evenodd" clip-rule="evenodd" d="M20.4121 13.7058C20.1892 13.5652 19.9098 13.5485 19.6717 13.6615C18.8637 14.0437 17.8988 13.8187 17.3432 13.1186C16.7875 12.4184 16.7875 11.4277 17.3432 10.7276C17.8988 10.0274 18.8637 9.80247 19.6717 10.1846C19.91 10.2977 20.1897 10.2808 20.4127 10.1398C20.6357 9.99873 20.7708 9.75326 20.7707 9.48942V5.38462C20.7707 4.53495 20.0819 3.84615 19.2323 3.84615H15.7496C15.7639 3.71845 15.771 3.59004 15.7707 3.46154C15.7693 2.50604 15.3742 1.59336 14.6784 0.938461C13.7056 0.0247571 12.2941 -0.248251 11.0507 0.236788C9.80727 0.721828 8.95348 1.8785 8.85631 3.20962C8.84153 3.42177 8.84604 3.63482 8.86977 3.84615H5.38612C4.53645 3.84615 3.84766 4.53495 3.84766 5.38462V8.48269C3.71995 8.46838 3.59154 8.46132 3.46304 8.46154C2.50757 8.46308 1.59493 8.85818 0.939964 9.55385C0.280072 10.2509 -0.0578245 11.1924 0.00823314 12.15C0.1222 13.8743 1.48784 15.2519 3.21112 15.3808C3.42326 15.396 3.63635 15.3915 3.84766 15.3673V18.4615C3.84766 19.3112 4.53645 20 5.38612 20H19.2323C20.0819 20 20.7707 19.3112 20.7707 18.4615V14.3567C20.7709 14.0926 20.6355 13.8468 20.4121 13.7058ZM19.2323 18.4615H5.38612V14.3567C5.3862 14.0929 5.25107 13.8474 5.0281 13.7064C4.80513 13.5653 4.52543 13.5484 4.28708 13.6615C3.47904 14.0437 2.51423 13.8187 1.95857 13.1186C1.40291 12.4184 1.40291 11.4277 1.95857 10.7276C2.51423 10.0274 3.47904 9.80247 4.28708 10.1846C4.52543 10.2977 4.80513 10.2808 5.0281 10.1398C5.25107 9.99873 5.3862 9.75326 5.38612 9.48942V5.38462H9.87554C10.1394 5.3847 10.3848 5.24957 10.5259 5.0266C10.6669 4.80363 10.6839 4.52393 10.5707 4.28558C10.1886 3.47754 10.4136 2.51273 11.1137 1.95707C11.8138 1.40141 12.8045 1.40141 13.5047 1.95707C14.2048 2.51273 14.4298 3.47754 14.0477 4.28558C13.9345 4.52393 13.9515 4.80363 14.0925 5.0266C14.2335 5.24957 14.479 5.3847 14.7428 5.38462H19.2323V8.48365C19.021 8.45945 18.8079 8.45494 18.5957 8.47019C16.7348 8.60197 15.3131 10.1848 15.381 12.0491C15.4489 13.9135 16.9821 15.3886 18.8477 15.3846C18.9762 15.3848 19.1046 15.3778 19.2323 15.3635V18.4615Z" fill="#0D141C"/>
</svg>
