<svg width="20" height="20" viewBox="0 0 20 20" fill="none" xmlns="http://www.w3.org/2000/svg">
<path fill-rule="evenodd" clip-rule="evenodd" d="M9.99851 5.41211C7.46548 5.41211 5.41206 7.46553 5.41206 9.99855C5.41206 12.5316 7.46548 14.585 9.99851 14.585C12.5315 14.585 14.585 12.5316 14.585 9.99855C14.5823 7.46662 12.5304 5.41474 9.99851 5.41211ZM9.99851 13.0562C8.30982 13.0562 6.94088 11.6872 6.94088 9.99855C6.94088 8.30987 8.30982 6.94092 9.99851 6.94092C11.6872 6.94092 13.0561 8.30987 13.0561 9.99855C13.0561 11.6872 11.6872 13.0562 9.99851 13.0562ZM18.407 10.2049C18.4108 10.0674 18.4108 9.92976 18.407 9.79216L19.8326 8.01109C19.9842 7.82145 20.0367 7.57107 19.974 7.33651C19.7403 6.45801 19.3907 5.61453 18.9344 4.82829C18.8133 4.61967 18.6008 4.48047 18.3611 4.45278L16.0947 4.20052C16.0004 4.10115 15.9048 4.0056 15.808 3.91387L15.5405 1.64167C15.5126 1.40184 15.373 1.18928 15.164 1.06837C14.3774 0.612919 13.534 0.263669 12.6558 0.0297272C12.4211 -0.032675 12.1707 0.0201713 11.9812 0.172098L10.2049 1.59007C10.0673 1.59007 9.92971 1.59007 9.79212 1.59007L8.01105 0.167321C7.8214 0.0157266 7.57102 -0.0367615 7.33646 0.0259051C6.45811 0.260031 5.61468 0.60961 4.82825 1.0655C4.61962 1.18664 4.48042 1.39915 4.45273 1.6388L4.20048 3.90909C4.10111 4.00401 4.00555 4.09956 3.91383 4.19575L1.64162 4.4566C1.40179 4.4845 1.18924 4.62408 1.06832 4.83307C0.612872 5.61961 0.263622 6.46302 0.0296806 7.34128C-0.0327217 7.576 0.0201247 7.82639 0.172051 8.01587L1.59003 9.79216C1.59003 9.92976 1.59003 10.0674 1.59003 10.2049L0.167274 11.986C0.01568 12.1757 -0.0368082 12.426 0.0258584 12.6606C0.259566 13.5391 0.609167 14.3826 1.06545 15.1688C1.18659 15.3774 1.39911 15.5166 1.63876 15.5443L3.90523 15.7966C4.00014 15.896 4.09569 15.9915 4.19188 16.0832L4.45655 18.3554C4.48446 18.5953 4.62403 18.8078 4.83303 18.9287C5.61957 19.3842 6.46297 19.7334 7.34124 19.9674C7.57595 20.0298 7.82635 19.9769 8.01583 19.825L9.79212 18.407C9.92971 18.4109 10.0673 18.4109 10.2049 18.407L11.986 19.8327C12.1756 19.9842 12.426 20.0367 12.6606 19.9741C13.539 19.7404 14.3825 19.3908 15.1688 18.9345C15.3774 18.8133 15.5166 18.6008 15.5443 18.3612L15.7965 16.0947C15.8959 16.0004 15.9915 15.9049 16.0832 15.808L18.3554 15.5405C18.5952 15.5126 18.8078 15.373 18.9287 15.164C19.3841 14.3775 19.7334 13.5341 19.9673 12.6558C20.0297 12.4211 19.9769 12.1707 19.825 11.9812L18.407 10.2049ZM16.8686 9.58386C16.8849 9.86009 16.8849 10.137 16.8686 10.4132C16.8572 10.6024 16.9165 10.789 17.0349 10.9369L18.3907 12.631C18.2352 13.1254 18.036 13.6051 17.7955 14.0642L15.636 14.3089C15.448 14.3297 15.2743 14.4196 15.1487 14.5611C14.9648 14.768 14.7689 14.9639 14.562 15.1478C14.4205 15.2734 14.3306 15.447 14.3098 15.6351L14.0699 17.7926C13.6108 18.0332 13.1312 18.2325 12.6367 18.3879L10.9416 17.0321C10.806 16.9237 10.6375 16.8647 10.4638 16.8648H10.418C10.1418 16.8811 9.86482 16.8811 9.58859 16.8648C9.39948 16.8535 9.21288 16.9127 9.06497 17.0311L7.36608 18.3879C6.87163 18.2323 6.39199 18.0331 5.93282 17.7926L5.68821 15.6361C5.66733 15.448 5.57745 15.2744 5.43595 15.1487C5.22909 14.9648 5.03319 14.7689 4.84927 14.5621C4.72365 14.4206 4.55002 14.3307 4.36196 14.3098L2.20442 14.069C1.96381 13.6099 1.7646 13.1302 1.60914 12.6358L2.965 10.9407C3.0834 10.7928 3.14265 10.6062 3.13126 10.4171C3.11502 10.1408 3.11502 9.86391 3.13126 9.58768C3.14265 9.39857 3.0834 9.21197 2.965 9.06407L1.60914 7.36613C1.76472 6.87168 1.96393 6.39204 2.20442 5.93286L4.361 5.68825C4.54906 5.66738 4.72269 5.5775 4.84831 5.436C5.03224 5.22914 5.22814 5.03324 5.435 4.84932C5.57706 4.72361 5.66731 4.54958 5.68821 4.36105L5.92804 2.20447C6.38716 1.96386 6.86681 1.76465 7.3613 1.60918L9.05638 2.96505C9.20428 3.08344 9.39088 3.14269 9.57999 3.13131C9.85622 3.11507 10.1332 3.11507 10.4094 3.13131C10.5985 3.14269 10.7851 3.08344 10.933 2.96505L12.6309 1.60918C13.1254 1.76476 13.605 1.96398 14.0642 2.20447L14.3088 4.36105C14.3297 4.54911 14.4196 4.72274 14.5611 4.84836C14.7679 5.03229 14.9638 5.22818 15.1477 5.43504C15.2734 5.57654 15.447 5.66642 15.6351 5.6873L17.7926 5.92713C18.0332 6.38626 18.2324 6.86591 18.3879 7.36039L17.032 9.05547C16.9125 9.20462 16.8532 9.39314 16.8658 9.58386H16.8686Z" fill="#0D141C"/>
</svg>
