<svg width="18" height="19" viewBox="0 0 18 19" fill="none" xmlns="http://www.w3.org/2000/svg">
<path fill-rule="evenodd" clip-rule="evenodd" d="M18 8.58122V17.2484C18 18.0768 17.3284 18.7484 16.5 18.7484H12.75C11.9216 18.7484 11.25 18.0768 11.25 17.2484V13.4984C11.25 13.0842 10.9142 12.7484 10.5 12.7484H7.5C7.08579 12.7484 6.75 13.0842 6.75 13.4984V17.2484C6.75 18.0768 6.07843 18.7484 5.25 18.7484H1.5C0.671573 18.7484 0 18.0768 0 17.2484V8.58122C-6.38962e-05 8.16149 0.17573 7.76094 0.484688 7.47684L7.98469 0.400593L7.995 0.39028C8.56719 -0.130094 9.44124 -0.130094 10.0134 0.39028C10.0166 0.393949 10.0201 0.397394 10.0238 0.400593L17.5238 7.47684C17.8296 7.76243 18.0022 8.16278 18 8.58122Z" fill="#0D141C"/>
</svg>
