<svg width="18" height="20" viewBox="0 0 18 20" fill="none" xmlns="http://www.w3.org/2000/svg">
<path fill-rule="evenodd" clip-rule="evenodd" d="M9 0C3.95344 0 0 2.30625 0 5.25V14.25C0 17.1938 3.95344 19.5 9 19.5C14.0466 19.5 18 17.1938 18 14.25V5.25C18 2.30625 14.0466 0 9 0ZM16.5 9.75C16.5 10.6519 15.7612 11.5716 14.4741 12.2738C13.0247 13.0641 11.0803 13.5 9 13.5C6.91969 13.5 4.97531 13.0641 3.52594 12.2738C2.23875 11.5716 1.5 10.6519 1.5 9.75V8.19C3.09937 9.59625 5.83406 10.5 9 10.5C12.1659 10.5 14.9006 9.5925 16.5 8.19V9.75ZM3.52594 2.72625C4.97531 1.93594 6.91969 1.5 9 1.5C11.0803 1.5 13.0247 1.93594 14.4741 2.72625C15.7612 3.42844 16.5 4.34812 16.5 5.25C16.5 6.15187 15.7612 7.07156 14.4741 7.77375C13.0247 8.56406 11.0803 9 9 9C6.91969 9 4.97531 8.56406 3.52594 7.77375C2.23875 7.07156 1.5 6.15187 1.5 5.25C1.5 4.34812 2.23875 3.42844 3.52594 2.72625ZM14.4741 16.7738C13.0247 17.5641 11.0803 18 9 18C6.91969 18 4.97531 17.5641 3.52594 16.7738C2.23875 16.0716 1.5 15.1519 1.5 14.25V12.69C3.09937 14.0962 5.83406 15 9 15C12.1659 15 14.9006 14.0925 16.5 12.69V14.25C16.5 15.1519 15.7612 16.0716 14.4741 16.7738Z" fill="#0D141C"/>
</svg>
